pose18
version=1
nRows=4
nColumns=213
inDegrees=yes
endheader
time	platform_rx	platform_ry	platform_rz	platform_ty	pelvis_tilt	pelvis_list	pelvis_rotation	pelvis_tx	pelvis_ty	pelvis_tz	hip_flexion_r	hip_adduction_r	hip_rotation_r	knee_angle_r	knee_angle_r_beta	ankle_angle_r	subtalar_angle_r	mtp_angle_r	hip_flexion_l	hip_adduction_l	hip_rotation_l	knee_angle_l	knee_angle_l_beta	ankle_angle_l	subtalar_angle_l	mtp_angle_l	lumbar_extension	lumbar_bending	lumbar_rotation	arm_flex_r	arm_add_r	arm_rot_r	elbow_flex_r	pro_sup_r	wrist_flex_r	wrist_dev_r	arm_flex_l	arm_add_l	arm_rot_l	elbow_flex_l	pro_sup_l	wrist_flex_l	wrist_dev_l	platform_rx_u	platform_ry_u	platform_rz_u	platform_ty_u	pelvis_tilt_u	pelvis_list_u	pelvis_rotation_u	pelvis_tx_u	pelvis_ty_u	pelvis_tz_u	hip_flexion_r_u	hip_adduction_r_u	hip_rotation_r_u	knee_angle_r_u	knee_angle_r_beta_u	ankle_angle_r_u	subtalar_angle_r_u	mtp_angle_r_u	hip_flexion_l_u	hip_adduction_l_u	hip_rotation_l_u	knee_angle_l_u	knee_angle_l_beta_u	ankle_angle_l_u	subtalar_angle_l_u	mtp_angle_l_u	lumbar_extension_u	lumbar_bending_u	lumbar_rotation_u	arm_flex_r_u	arm_add_r_u	arm_rot_r_u	elbow_flex_r_u	pro_sup_r_u	wrist_flex_r_u	wrist_dev_r_u	arm_flex_l_u	arm_add_l_u	arm_rot_l_u	elbow_flex_l_u	pro_sup_l_u	wrist_flex_l_u	wrist_dev_l_u	addbrev_r.activation	addlong_r.activation	addlong_r.fiber_length	addmagDist_r.activation	addmagIsch_r.activation	addmagIsch_r.fiber_length	addmagMid_r.activation	addmagProx_r.activation	bflh_r.activation	bflh_r.fiber_length	bfsh_r.activation	edl_r.activation	edl_r.fiber_length	ehl_r.activation	ehl_r.fiber_length	fdl_r.activation	fdl_r.fiber_length	fhl_r.activation	fhl_r.fiber_length	gaslat_r.activation	gaslat_r.fiber_length	gasmed_r.activation	gasmed_r.fiber_length	glmax1_r.activation	glmax2_r.activation	glmax3_r.activation	glmed1_r.activation	glmed2_r.activation	glmed3_r.activation	glmin1_r.activation	glmin2_r.activation	glmin3_r.activation	glmin3_r.fiber_length	grac_r.activation	iliacus_r.activation	perbrev_r.activation	perbrev_r.fiber_length	perlong_r.activation	perlong_r.fiber_length	piri_r.activation	piri_r.fiber_length	psoas_r.activation	recfem_r.activation	recfem_r.fiber_length	sart_r.activation	semimem_r.activation	semimem_r.fiber_length	semiten_r.activation	semiten_r.fiber_length	soleus_r.activation	soleus_r.fiber_length	tfl_r.activation	tfl_r.fiber_length	tibant_r.activation	tibant_r.fiber_length	tibpost_r.activation	tibpost_r.fiber_length	vasint_r.activation	vasint_r.fiber_length	vaslat_r.activation	vaslat_r.fiber_length	vasmed_r.activation	vasmed_r.fiber_length	addbrev_l.activation	addlong_l.activation	addlong_l.fiber_length	addmagDist_l.activation	addmagIsch_l.activation	addmagIsch_l.fiber_length	addmagMid_l.activation	addmagProx_l.activation	bflh_l.activation	bflh_l.fiber_length	bfsh_l.activation	edl_l.activation	edl_l.fiber_length	ehl_l.activation	ehl_l.fiber_length	fdl_l.activation	fdl_l.fiber_length	fhl_l.activation	fhl_l.fiber_length	gaslat_l.activation	gaslat_l.fiber_length	gasmed_l.activation	gasmed_l.fiber_length	glmax1_l.activation	glmax2_l.activation	glmax3_l.activation	glmed1_l.activation	glmed2_l.activation	glmed3_l.activation	glmin1_l.activation	glmin2_l.activation	glmin3_l.activation	glmin3_l.fiber_length	grac_l.activation	iliacus_l.activation	perbrev_l.activation	perbrev_l.fiber_length	perlong_l.activation	perlong_l.fiber_length	piri_l.activation	piri_l.fiber_length	psoas_l.activation	recfem_l.activation	recfem_l.fiber_length	sart_l.activation	semimem_l.activation	semimem_l.fiber_length	semiten_l.activation	semiten_l.fiber_length	soleus_l.activation	soleus_l.fiber_length	tfl_l.activation	tfl_l.fiber_length	tibant_l.activation	tibant_l.fiber_length	tibpost_l.activation	tibpost_l.fiber_length	vasint_l.activation	vasint_l.fiber_length	vaslat_l.activation	vaslat_l.fiber_length	vasmed_l.activation	vasmed_l.fiber_length
      0.03399183	     20.00000000	      0.00000000	     -0.00000000	      0.25000000	    -10.52446236	     -0.00662011	     -0.00651194	     -0.03332901	      0.64300468	      0.00004641	     73.38034221	    -18.89287140	     -3.67491837	     87.56032298	     87.56032298	    -22.29906697	     -2.07342345	     -0.00000000	     73.38940712	    -18.96847836	     -3.63147606	     87.53752033	     87.53752033	    -22.24809196	     -0.00000000	      0.00000000	    -19.96579424	      0.00122126	      0.00783504	     94.22420203	     -0.20665672	     89.84109293	      0.71968048	      0.16995196	     -0.00000000	      0.00000000	     94.22813092	     -0.21084768	     89.68514477	      0.72933954	      0.32149776	     -0.00000000	     -0.00000000	      0.00000000	      0.00000000	     -0.00000000	     -0.00000000	    918.77799366	      0.75074024	      0.80889987	      0.08748771	      1.60318985	     -0.00146290	  -1214.84423590	    -40.21306692	    -49.20781293	   -424.14224380	   -424.14224380	  -1604.85705508	    225.32627076	     -0.00000000	  -1215.42145135	    -40.02810304	    -69.10652614	   -425.70823704	   -425.70823704	  -1682.80148629	     -0.00000000	      0.00000000	  -1118.42810513	     -0.69891275	     -0.96739027	    236.23628821	    -13.09903700	     -0.00000000	     36.62809836	      8.82638937	     -0.00000000	      0.00000000	    236.28330305	    -13.24966042	    -10.51417172	     37.10304874	     19.44964928	      0.00000000	      0.00000000	      0.01000000	      0.01000000	      0.09791804	      0.01000000	      0.01000000	      0.20436906	      0.01000000	      0.01000000	      0.01000000	      0.11379402	      0.01000000	      0.01000000	      0.08029251	      0.01000000	      0.09065522	      0.01000000	      0.04453503	      0.01000000	      0.05127703	      0.01000000	      0.04836947	      0.01000000	      0.03769956	      0.01000000	      0.01000000	      0.01000000	      0.01000000	      0.01000000	      0.01000000	      0.01000000	      0.01000000	      0.01000000	      0.04151332	      0.01000000	      0.01000000	      0.01000000	      0.04550618	      0.01000000	      0.05089696	      0.01000000	      0.02845595	      0.01000000	      0.01000000	      0.06332000	      0.01000000	      0.01000000	      0.07193058	      0.01000000	      0.22024210	      0.01000000	      0.04466173	      0.01000000	      0.03368191	      0.01000000	      0.08076044	      0.01000000	      0.03811758	      0.01000000	      0.13371990	      0.01000000	      0.13031073	      0.01000000	      0.12819399	      0.01000000	      0.01000000	      0.09801485	      0.01000000	      0.01000000	      0.20442608	      0.01000000	      0.01000000	      0.01000000	      0.11381903	      0.01000000	      0.01000000	      0.08071197	      0.01000000	      0.09052989	      0.01000000	      0.04406580	      0.01000000	      0.05109563	      0.01000000	      0.04837165	      0.01000000	      0.03770382	      0.01000000	      0.01000000	      0.01000000	      0.01000000	      0.01000000	      0.01000000	      0.01000000	      0.01000000	      0.01000000	      0.04145884	      0.01000000	      0.01000000	      0.01000000	      0.04638908	      0.01000000	      0.05163607	      0.01000000	      0.02841221	      0.01000000	      0.01000000	      0.06329237	      0.01000000	      0.01000000	      0.07194885	      0.01000000	      0.22028505	      0.01000000	      0.04467808	      0.01000000	      0.03358938	      0.01000000	      0.08036679	      0.01000000	      0.03776255	      0.01000000	      0.13371234	      0.01000000	      0.13030396	      0.01000000	      0.12818746
      0.03441092	     20.00000000	      0.00000000	     -0.00000000	      0.25000000	    -10.13748933	     -0.00629998	     -0.00617101	     -0.03329292	      0.64368082	      0.00004578	     72.86793606	    -18.90971676	     -3.69597524	     87.38078776	     87.38078776	    -22.96969334	     -1.97660173	     -0.00000000	     72.87675513	    -18.98523925	     -3.66103914	     87.35734879	     87.35734879	    -22.95193157	     -0.00000000	      0.00000000	    -20.43666306	      0.00092725	      0.00742428	     94.32362928	     -0.21218697	     89.84109293	      0.73514455	      0.17374027	     -0.00000000	      0.00000000	     94.32757690	     -0.21644043	     89.68069953	      0.74500244	      0.32977656	     -0.00000000	     -0.00000000	      0.00000000	      0.00000000	     -0.00000000	     -0.00000000	    927.95056612	      0.77516453	      0.81653825	      0.08471762	      1.62352204	     -0.00152431	  -1230.49314685	    -40.17044352	    -51.28453876	   -432.66121253	   -432.66121253	  -1595.53435024	    236.76054497	     -0.00000000	  -1231.08692376	    -39.95883020	    -71.98001836	   -434.12858429	   -434.12858429	  -1676.09289479	     -0.00000000	      0.00000000	  -1128.66484481	     -0.70263478	     -0.99079775	    238.25042194	    -13.29302379	     -0.00000000	     37.17094188	      9.25400209	     -0.00000000	      0.00000000	    238.29254382	    -13.44030692	    -10.69990164	     37.64438970	     20.06019390	     -0.00000000	      0.00000000	      0.01000000	      0.01000000	      0.09795567	      0.01000000	      0.01000000	      0.20398725	      0.01000000	      0.01000000	      0.01000000	      0.11351127	      0.01000000	      0.01000000	      0.08064521	      0.01000000	      0.09099678	      0.01000000	      0.04447622	      0.01000000	      0.05120754	      0.01000000	      0.04829573	      0.01000000	      0.03763801	      0.01000000	      0.01000000	      0.01000000	      0.01000000	      0.01000000	      0.01000000	      0.01000000	      0.01000000	      0.01000000	      0.04140781	      0.01000000	      0.01000000	      0.01000000	      0.04545568	      0.01000000	      0.05082997	      0.01000000	      0.02833875	      0.01000000	      0.01000000	      0.06362376	      0.01000000	      0.01000000	      0.07176137	      0.01000000	      0.21992334	      0.01000000	      0.04460072	      0.01000000	      0.03423667	      0.01000000	      0.08113778	      0.01000000	      0.03806744	      0.01000000	      0.13365994	      0.01000000	      0.13025705	      0.01000000	      0.12814222	      0.01000000	      0.01000000	      0.09805277	      0.01000000	      0.01000000	      0.20398926	      0.01000000	      0.01000000	      0.01000000	      0.11353629	      0.01000000	      0.01000000	      0.08105772	      0.01000000	      0.09089047	      0.01000000	      0.04400699	      0.01000000	      0.05102615	      0.01000000	      0.04829790	      0.01000000	      0.03764226	      0.01000000	      0.01000000	      0.01000000	      0.01000000	      0.01000000	      0.01000000	      0.01000000	      0.01000000	      0.01000000	      0.04135786	      0.01000000	      0.01000000	      0.01000000	      0.04631968	      0.01000000	      0.05156445	      0.01000000	      0.02829704	      0.01000000	      0.01000000	      0.06359571	      0.01000000	      0.01000000	      0.07177867	      0.01000000	      0.21996707	      0.01000000	      0.04461682	      0.01000000	      0.03414999	      0.01000000	      0.08077821	      0.01000000	      0.03771270	      0.01000000	      0.13365213	      0.01000000	      0.13025007	      0.01000000	      0.12813547
      0.03475543	     20.00000000	      0.00000000	     -0.00000000	      0.25000000	     -9.81650846	     -0.00602899	     -0.00588830	     -0.03326414	      0.64424301	      0.00004525	     72.44180446	    -18.92354812	     -3.71393876	     87.23051697	     87.23051697	    -23.51804231	     -1.89339816	     -0.00000000	     72.45041620	    -18.99899245	     -3.68624709	     87.20658703	     87.20658703	    -23.52840262	     -0.00000000	      0.00000000	    -20.82693703	      0.00068435	      0.00707910	     94.40598972	     -0.21679402	     89.84109293	      0.74802724	      0.17698970	     -0.00000000	      0.00000000	     94.40995120	     -0.22109781	     89.67698710	      0.75804809	      0.33677478	     -0.00000000	     -0.00000000	      0.00000000	      0.00000000	     -0.00000000	     -0.00000000	    935.43344706	      0.79864336	      0.82505308	      0.08235686	      1.64014355	     -0.00158041	  -1243.32711752	    -40.12310208	    -53.00034281	   -439.71449305	   -439.71449306	  -1587.78735666	    246.28051774	     -0.00000000	  -1243.93761037	    -39.87907627	    -74.36310321	   -441.09680833	   -441.09680833	  -1670.48443217	     -0.00000000	      0.00000000	  -1136.98059976	     -0.70789653	     -1.01371958	    239.87205878	    -13.45226436	      0.00000000	     37.61701529	      9.61066990	     -0.00000000	      0.00000000	    239.91043555	    -13.59726682	    -10.85176493	     38.08968966	     20.56739657	      0.00000000	      0.00000000	      0.01000000	      0.01000000	      0.09798981	      0.01000000	      0.01000000	      0.20361303	      0.01000000	      0.01000000	      0.01000000	      0.11327470	      0.01000000	      0.01000000	      0.08093214	      0.01000000	      0.09127327	      0.01000000	      0.04442787	      0.01000000	      0.05115042	      0.01000000	      0.04823513	      0.01000000	      0.03758743	      0.01000000	      0.01000000	      0.01000000	      0.01000000	      0.01000000	      0.01000000	      0.01000000	      0.01000000	      0.01000000	      0.04131978	      0.01000000	      0.01000000	      0.01000000	      0.04541506	      0.01000000	      0.05077490	      0.01000000	      0.02824190	      0.01000000	      0.01000000	      0.06387699	      0.01000000	      0.01000000	      0.07162914	      0.01000000	      0.21965741	      0.01000000	      0.04455121	      0.01000000	      0.03469724	      0.01000000	      0.08144264	      0.01000000	      0.03802633	      0.01000000	      0.13360955	      0.01000000	      0.13021204	      0.01000000	      0.12809869	      0.01000000	      0.01000000	      0.09808716	      0.01000000	      0.01000000	      0.20367095	      0.01000000	      0.01000000	      0.01000000	      0.11329967	      0.01000000	      0.01000000	      0.08133850	      0.01000000	      0.09118307	      0.01000000	      0.04395864	      0.01000000	      0.05096903	      0.01000000	      0.04823731	      0.01000000	      0.03759168	      0.01000000	      0.01000000	      0.01000000	      0.01000000	      0.01000000	      0.01000000	      0.01000000	      0.01000000	      0.01000000	      0.04127367	      0.01000000	      0.01000000	      0.01000000	      0.04626394	      0.01000000	      0.05150646	      0.01000000	      0.02820192	      0.01000000	      0.01000000	      0.06384861	      0.01000000	      0.01000000	      0.07164567	      0.01000000	      0.21970175	      0.01000000	      0.04456714	      0.01000000	      0.03461552	      0.01000000	      0.08111198	      0.01000000	      0.03767172	      0.01000000	      0.13360153	      0.01000000	      0.13020489	      0.01000000	      0.12809177
      0.03509994	     20.00000000	      0.00000000	     -0.00000000	      0.25000000	     -9.49295853	     -0.00575030	     -0.00560308	     -0.03323618	      0.64481091	      0.00004469	     72.01125562	    -18.93735957	     -3.73249498	     87.07780799	     87.07780799	    -24.06370831	     -1.80689494	     -0.00000000	     72.01965482	    -19.01271617	     -3.71227880	     87.05341794	     87.05341794	    -24.10292652	     -0.00000000	      0.00000000	    -21.22006042	      0.00044001	      0.00672651	     94.48890351	     -0.22145597	     89.84109293	      0.76106368	      0.18036292	     -0.00000000	      0.00000000	     94.49287748	     -0.22580921	     89.67322237	      0.77124708	      0.34394851	     -0.00000000	     -0.00000000	      0.00000000	      0.00000000	     -0.00000000	     -0.00000000	    942.86486659	      0.81880078	      0.83036029	      0.07992173	      1.65667783	     -0.00163056	  -1256.13729675	    -40.05308525	    -54.72566397	   -446.81610278	   -446.81610278	  -1579.95765132	    255.91749622	     -0.00000000	  -1256.76007086	    -39.78941317	    -76.76155437	   -448.10328593	   -448.10328593	  -1664.78859515	     -0.00000000	      0.00000000	  -1145.20668947	     -0.71016281	     -1.03270294	    241.46279916	    -13.61184056	     -0.00000000	     38.06358772	      9.97282598	     -0.00000000	      0.00000000	    241.49685147	    -13.75383697	    -11.00360583	     38.53444101	     21.07905605	      0.00000000	      0.00000000	      0.01000000	      0.01000000	      0.09802686	      0.01000000	      0.01000000	      0.20328191	      0.01000000	      0.01000000	      0.01000000	      0.11303438	      0.01000000	      0.01000000	      0.08121631	      0.01000000	      0.09154593	      0.01000000	      0.04437952	      0.01000000	      0.05109330	      0.01000000	      0.04817457	      0.01000000	      0.03753689	      0.01000000	      0.01000000	      0.01000000	      0.01000000	      0.01000000	      0.01000000	      0.01000000	      0.01000000	      0.01000000	      0.04123060	      0.01000000	      0.01000000	      0.01000000	      0.04537531	      0.01000000	      0.05071983	      0.01000000	      0.02814487	      0.01000000	      0.01000000	      0.06413337	      0.01000000	      0.01000000	      0.07150266	      0.01000000	      0.21938802	      0.01000000	      0.04450218	      0.01000000	      0.03516183	      0.01000000	      0.08174271	      0.01000000	      0.03798528	      0.01000000	      0.13355814	      0.01000000	      0.13016622	      0.01000000	      0.12805427	      0.01000000	      0.01000000	      0.09812446	      0.01000000	      0.01000000	      0.20331054	      0.01000000	      0.01000000	      0.01000000	      0.11305928	      0.01000000	      0.01000000	      0.08161615	      0.01000000	      0.09147227	      0.01000000	      0.04391029	      0.01000000	      0.05091192	      0.01000000	      0.04817675	      0.01000000	      0.03754114	      0.01000000	      0.01000000	      0.01000000	      0.01000000	      0.01000000	      0.01000000	      0.01000000	      0.01000000	      0.01000000	      0.04118842	      0.01000000	      0.01000000	      0.01000000	      0.04620929	      0.01000000	      0.05144917	      0.01000000	      0.02810666	      0.01000000	      0.01000000	      0.06410468	      0.01000000	      0.01000000	      0.07151848	      0.01000000	      0.21943295	      0.01000000	      0.04451796	      0.01000000	      0.03508519	      0.01000000	      0.08144174	      0.01000000	      0.03763075	      0.01000000	      0.13354993	      0.01000000	      0.13015892	      0.01000000	      0.12804717
